<svg width="40" height="27" viewBox="0 0 40 27" fill="none" xmlns="http://www.w3.org/2000/svg">
  <rect width="40" height="27" rx="5" fill="#012169"/>
  <path d="M0 0H40V27H0V0Z" fill="#012169"/>
  <path d="M40 0V3.375L25.1562 13.5L40 23.625V27H35.9375L20 15.75L4.0625 27H0V23.625L14.8438 13.5L0 3.375V0H4.0625L20 11.25L35.9375 0H40Z" fill="white"/>
  <path d="M26.6667 16.875L40 27H40V24.75L30 16.875H26.6667ZM14.8438 16.875L40 36.5625V40.5L9.16667 16.875H14.8438ZM40 0V0L24.1667 10.125H20L40 0ZM0 0L15.8333 10.125H11.6667L0 2.25V0Z" fill="#C8102E"/>
  <path d="M15 0V27H25V0H15ZM0 9V18H40V9H0Z" fill="white"/>
  <path d="M0 10.8V16.2H40V10.8H0ZM17 0V27H23V0H17Z" fill="#C8102E"/>
</svg>